<mxfile host="app.diagrams.net" modified="2024-04-28T09:45:54.607Z" agent="Mozilla/5.0 (Windows NT 10.0; Win64; x64) AppleWebKit/537.36 (KHTML, like Gecko) Chrome/124.0.0.0 Safari/537.36 Edg/124.0.0.0" version="24.3.1" etag="ORL9WHZZGbxCRdVlT4qO" type="github">
  <diagram name="Page-1" id="xwX0c1N9j-V_swLtkqrj">
    <mxGraphModel>
      <root>
        <mxCell id="0" />
        <mxCell id="1" parent="0" />
      </root>
    </mxGraphModel>
  </diagram>
</mxfile>
